<?xml version="1.0" ?><!DOCTYPE svg  PUBLIC '-//W3C//DTD SVG 1.1//EN'  'http://www.w3.org/Graphics/SVG/1.1/DTD/svg11.dtd'><svg enable-background="new 0 0 512 512" height="512px" id="Layer_1" version="1.1" viewBox="0 0 512 512" width="512px" xml:space="preserve" xmlns="http://www.w3.org/2000/svg" xmlns:xlink="http://www.w3.org/1999/xlink"><g id="Layer_1_1_"/><g id="Layer_2"/><g id="Layer_3"><path d="M423.883,213.572c-2.568,0-5.105,0.136-7.605,0.395c-0.663-60.201-49.663-108.802-110.021-108.802   c-46.48,0-86.229,28.819-102.354,69.563c-7.243-1.793-14.816-2.75-22.614-2.75c-51.827,0-93.841,42.014-93.841,93.841   c0,51.55,41.569,93.387,93.016,93.83v0.011h243.42c40.339,0,73.043-32.704,73.043-73.045   C496.926,246.276,464.222,213.572,423.883,213.572z" fill="#E8F3F9"/><path d="M403.883,193.572   c-2.568,0-5.105,0.136-7.605,0.395c-0.663-60.201-49.663-108.802-110.021-108.802c-46.48,0-86.229,28.819-102.354,69.563   c-7.243-1.793-14.816-2.75-22.614-2.75c-51.827,0-93.841,42.014-93.841,93.841c0,51.55,41.569,93.387,93.016,93.83v0.011h243.42   c40.339,0,73.043-32.704,73.043-73.045C476.926,226.276,444.222,193.572,403.883,193.572z" fill="none" stroke="#65BAE0" stroke-linejoin="round" stroke-miterlimit="10" stroke-width="10"/><path d="M45.651,221.12c0.671-9.56,2.671-18.752,5.824-27.39c0-0.132-0.007-0.263-0.007-0.395   c0-46.29,37.659-83.949,83.949-83.949c6.833,0,13.641,0.828,20.233,2.461c2.434,0.602,4.931-0.687,5.852-3.014   c15.092-38.137,51.349-62.778,92.368-62.778c16.426,0,32.218,3.973,46.32,11.432c10.34,1.755,20.221,4.854,29.459,9.109   c-20.46-19.717-47.262-30.541-75.779-30.541c-22.348,0-43.837,6.7-62.146,19.375c-16.7,11.563-29.725,27.326-37.868,45.772   c-6.055-1.206-12.238-1.816-18.439-1.816c-51.804,0-93.949,42.146-93.949,93.949c0,9.425,1.394,18.731,4.143,27.664   C45.625,221.04,45.639,221.08,45.651,221.12z" fill="#65BAE0"/></g><path d="  M190.663,390.096c0,0,5.569,25.267,3.24,32.289c-2.329,7.024-9.845,10.853-16.784,8.55c-6.94-2.302-10.679-9.861-8.349-16.885  C171.099,407.027,190.663,390.096,190.663,390.096z" fill="none" stroke="#65BAE0" stroke-linecap="round" stroke-linejoin="round" stroke-miterlimit="10" stroke-width="10"/><path d="  M278.585,380.312c0,0,5.569,25.267,3.24,32.289c-2.329,7.024-9.845,10.853-16.784,8.55c-6.94-2.302-10.679-9.861-8.349-16.885  C259.021,397.243,278.585,380.312,278.585,380.312z" fill="none" stroke="#65BAE0" stroke-linecap="round" stroke-linejoin="round" stroke-miterlimit="10" stroke-width="10"/><path d="  M384.919,375.871c0,0,5.569,25.267,3.24,32.289c-2.329,7.024-9.845,10.853-16.784,8.55c-6.94-2.302-10.679-9.861-8.349-16.885  C365.354,392.803,384.919,375.871,384.919,375.871z" fill="none" stroke="#65BAE0" stroke-linecap="round" stroke-linejoin="round" stroke-miterlimit="10" stroke-width="10"/><path d="  M321.083,431.604c0,0,5.569,25.267,3.24,32.289c-2.329,7.024-9.845,10.853-16.784,8.55c-6.94-2.302-10.679-9.861-8.349-16.885  C301.519,448.536,321.083,431.604,321.083,431.604z" fill="none" stroke="#65BAE0" stroke-linecap="round" stroke-linejoin="round" stroke-miterlimit="10" stroke-width="10"/></svg>