<?xml version="1.0" ?><svg data-name="Layer 1" id="Layer_1" viewBox="0 0 128 128" xmlns="http://www.w3.org/2000/svg"><defs><style>.cls-1{fill:#84b0b7;}</style></defs><title/><path class="cls-1" d="M103.87793,54.80811a2.50749,2.50749,0,0,0-3.15039-1.60547L93.34131,55.603l1.81933-4.395a2.49972,2.49972,0,0,0-4.61914-1.9126l-3.45263,8.33887-6.32471,2.05517,2.50977-14.63623a2.50011,2.50011,0,0,0-3.62745-2.63476L66.5,49.33008V42.7373l6.97949-5.959a2.50021,2.50021,0,0,0-3.24707-3.80273L66.5,36.1626V28.33545a2.5,2.5,0,0,0-5,0V36.1626l-3.73291-3.187a2.49987,2.49987,0,0,0-3.24658,3.80224L61.5,42.7373v6.59278L48.354,42.419a2.50017,2.50017,0,0,0-3.62793,2.63476l2.50977,14.63574-6.32471-2.05517L37.4585,49.29541a2.49963,2.49963,0,1,0-4.61914,1.91211L34.65869,55.603l-7.38721-2.40039a2.5001,2.5001,0,0,0-1.54394,4.75586L33.30078,60.419l-4.314,2.64453a2.50012,2.50012,0,0,0,2.61377,4.26269l7.95263-4.875,6.14063,1.99463L35.05664,74.81445a2.50014,2.50014,0,0,0,1.38477,4.26465l14.69677,2.13526L47.32812,86.4585l-9.21142.72363a2.50032,2.50032,0,0,0-1.42627,4.395,2.47378,2.47378,0,0,0,1.81836.59033l4.95459-.38916-4.66211,6.4165a2.49995,2.49995,0,0,0,.55371,3.49268,2.56752,2.56752,0,0,0,3.49121-.55322l4.61524-6.35254,1.13232,4.7124a2.49983,2.49983,0,1,0,4.86133-1.168l-2.12891-8.86328,3.85791-5.31055,6.57422,13.3208a2.50039,2.50039,0,0,0,4.48389-.00048l6.57373-13.32032,3.85791,5.31055-2.12891,8.86328a2.49983,2.49983,0,1,0,4.86133,1.168l1.13232-4.7124,4.61524,6.35254a2.5,2.5,0,0,0,4.4917-1.07862,2.48364,2.48364,0,0,0-.44678-1.86084l-4.66211-6.4165,4.96387.38965a2.50024,2.50024,0,0,0,.38232-4.98584l-9.21093-.72363-3.81006-5.24414L91.55811,79.0791a2.50026,2.50026,0,0,0,1.38574-4.26465L82.30615,64.4458l6.14063-1.99463,7.95263,4.875a2.5,2.5,0,0,0,2.61329-4.26269L94.69922,60.419l7.57324-2.46045A2.50394,2.50394,0,0,0,103.87793,54.80811ZM76.93359,66.19141l8.89258,8.668L73.5415,76.64453l-5.49609-7.56494ZM66.5,64.32373V54.979l10.98926-5.77783L75.3916,61.43506ZM69.49512,79.582,64,90.71729,58.50488,79.582,64,72.01807ZM52.6084,61.43555,50.51074,49.20117,61.5,54.979v9.34522Zm7.34619,7.644L54.4585,76.64453,42.17383,74.85938l8.89258-8.668Z"/></svg>